<svg xmlns="http://www.w3.org/2000/svg" width="1200" height="760" viewBox="0 0 1200 760" role="img" aria-labelledby="title desc">
  <title id="title">QDoc infrastructure architecture</title>
  <desc id="desc">A Docker Compose deployment with Caddy, Next.js web app, Node API, PostgreSQL, Redis, worker, and SMTP provider.</desc>
  <defs>
    <style>
      .bg { fill: #f8fafc; }
      .group { fill: #ffffff; stroke: #cbd5e1; stroke-width: 2; }
      .box { fill: #ffffff; stroke: #0f172a; stroke-width: 2; rx: 12; }
      .edge { stroke: #334155; stroke-width: 3; fill: none; marker-end: url(#arrow); }
      .label { font: 700 26px Arial, sans-serif; fill: #0f172a; }
      .small { font: 500 18px Arial, sans-serif; fill: #475569; }
      .tiny { font: 500 15px Arial, sans-serif; fill: #64748b; }
      .accent { fill: #0f766e; }
      .muted { fill: #e2e8f0; stroke: #94a3b8; stroke-width: 2; rx: 12; }
    </style>
    <marker id="arrow" viewBox="0 0 10 10" refX="9" refY="5" markerWidth="8" markerHeight="8" orient="auto-start-reverse">
      <path d="M 0 0 L 10 5 L 0 10 z" fill="#334155" />
    </marker>
  </defs>

  <rect class="bg" width="1200" height="760" />

  <text x="600" y="58" text-anchor="middle" class="label">QDoc Infrastructure</text>
  <text x="600" y="88" text-anchor="middle" class="small">PostgreSQL ticket queue + database-backed outbox worker</text>

  <rect x="80" y="145" width="1040" height="510" class="group" rx="20" />
  <text x="110" y="185" class="small">Docker Compose host</text>

  <rect x="135" y="260" width="180" height="95" class="box" />
  <text x="225" y="302" text-anchor="middle" class="label">Caddy</text>
  <text x="225" y="330" text-anchor="middle" class="small">TLS reverse proxy</text>

  <rect x="390" y="260" width="190" height="95" class="box" />
  <text x="485" y="302" text-anchor="middle" class="label">Web</text>
  <text x="485" y="330" text-anchor="middle" class="small">Next.js UI</text>

  <rect x="655" y="260" width="190" height="95" class="box" />
  <text x="750" y="302" text-anchor="middle" class="label">API</text>
  <text x="750" y="330" text-anchor="middle" class="small">Auth + queue</text>

  <rect x="575" y="475" width="235" height="105" class="box" />
  <text x="692" y="512" text-anchor="middle" class="label">PostgreSQL</text>
  <text x="692" y="540" text-anchor="middle" class="small">Tickets, events, outbox</text>
  <text x="692" y="563" text-anchor="middle" class="tiny">Source of truth</text>

  <rect x="890" y="475" width="180" height="105" class="box" />
  <text x="980" y="512" text-anchor="middle" class="label">Worker</text>
  <text x="980" y="540" text-anchor="middle" class="small">Polls outbox</text>
  <text x="980" y="563" text-anchor="middle" class="tiny">Sends notifications</text>

  <rect x="135" y="475" width="220" height="105" class="muted" />
  <text x="245" y="512" text-anchor="middle" class="label">Redis</text>
  <text x="245" y="540" text-anchor="middle" class="small">Provisioned</text>
  <text x="245" y="563" text-anchor="middle" class="tiny">Future realtime/cache</text>

  <rect x="890" y="260" width="180" height="95" class="muted" />
  <text x="980" y="302" text-anchor="middle" class="label">SMTP</text>
  <text x="980" y="330" text-anchor="middle" class="small">Email provider</text>

  <rect x="100" y="45" width="190" height="90" class="box" />
  <text x="195" y="84" text-anchor="middle" class="label">Browser</text>
  <text x="195" y="112" text-anchor="middle" class="small">Patient / staff</text>

  <path d="M 225 135 L 225 253" class="edge" />
  <path d="M 315 307 L 383 307" class="edge" />
  <path d="M 580 307 L 648 307" class="edge" />
  <path d="M 750 356 L 715 468" class="edge" />
  <path d="M 810 527 L 883 527" class="edge" />
  <path d="M 980 475 L 980 363" class="edge" />

  <text x="335" y="292" class="tiny">HTTPS</text>
  <text x="603" y="292" class="tiny">internal HTTP</text>
  <text x="735" y="420" class="tiny">Prisma</text>
  <text x="825" y="510" class="tiny">outbox rows</text>
  <text x="995" y="420" class="tiny">SMTP</text>

  <rect x="135" y="610" width="935" height="1" class="accent" />
  <text x="600" y="640" text-anchor="middle" class="small">Current queue and notification jobs use PostgreSQL ticket rows and outbox polling</text>
</svg>
